<svg width="191" height="28" viewBox="0 0 191 28" fill="none" xmlns="http://www.w3.org/2000/svg">
<path d="M0.128285 21.4307V1.06703H4.43368V17.8809H13.1638V21.4307H0.128285ZM22.8957 21.729C21.3247 21.729 19.9724 21.4108 18.8389 20.7744C17.712 20.1314 16.8436 19.2233 16.2338 18.05C15.6239 16.8701 15.319 15.4747 15.319 13.8639C15.319 12.2929 15.6239 10.9141 16.2338 9.72754C16.8436 8.54099 17.702 7.61627 18.809 6.95339C19.9227 6.29051 21.2285 5.95907 22.7267 5.95907C23.7342 5.95907 24.6722 6.12148 25.5406 6.44629C26.4156 6.76447 27.1779 7.24506 27.8275 7.88805C28.4838 8.53104 28.9942 9.33975 29.3588 10.3142C29.7233 11.282 29.9056 12.4155 29.9056 13.7148V14.8781H17.0093V12.2531H25.9184C25.9184 11.6433 25.7858 11.103 25.5207 10.6324C25.2555 10.1617 24.8876 9.79383 24.417 9.52868C23.953 9.25689 23.4127 9.121 22.7963 9.121C22.1533 9.121 21.5832 9.27015 21.086 9.56845C20.5955 9.86011 20.211 10.2545 19.9326 10.7517C19.6542 11.2422 19.5117 11.7891 19.5051 12.3923V14.8881C19.5051 15.6437 19.6443 16.2967 19.9227 16.8469C20.2077 17.397 20.6088 17.8213 21.1258 18.1196C21.6428 18.4179 22.256 18.567 22.9653 18.567C23.4359 18.567 23.8668 18.5007 24.2579 18.3682C24.649 18.2356 24.9838 18.0367 25.2622 17.7716C25.5406 17.5064 25.7527 17.1816 25.8985 16.7971L29.8161 17.0557C29.6173 17.997 29.2096 18.8189 28.5931 19.5216C27.9833 20.2176 27.1945 20.7612 26.2267 21.1523C25.2655 21.5367 24.1552 21.729 22.8957 21.729ZM39.5505 27.4761C38.1784 27.4761 37.0017 27.2872 36.0207 26.9094C35.0463 26.5381 34.2707 26.031 33.694 25.3881C33.1173 24.7451 32.7427 24.0225 32.5704 23.2204L36.488 22.6934C36.6073 22.9984 36.7963 23.2834 37.0548 23.5486C37.3133 23.8137 37.6547 24.0258 38.0789 24.1849C38.5098 24.3506 39.0335 24.4335 39.6499 24.4335C40.5713 24.4335 41.3303 24.2081 41.9269 23.7574C42.5302 23.3132 42.8318 22.5675 42.8318 21.5202V18.7261H42.6528C42.4672 19.1504 42.1888 19.5514 41.8176 19.9292C41.4463 20.3071 40.9691 20.6153 40.3857 20.854C39.8024 21.0926 39.1064 21.2119 38.2977 21.2119C37.1509 21.2119 36.1069 20.9468 35.1656 20.4165C34.2309 19.8795 33.4852 19.0609 32.9284 17.9605C32.3782 16.8535 32.1031 15.4548 32.1031 13.7645C32.1031 12.0344 32.3848 10.5893 32.9482 9.42924C33.5117 8.26921 34.2607 7.40083 35.1954 6.82413C36.1367 6.24743 37.1675 5.95907 38.2877 5.95907C39.1428 5.95907 39.8588 6.10491 40.4355 6.39657C41.0122 6.68161 41.4762 7.03957 41.8275 7.47044C42.1855 7.89468 42.4606 8.31229 42.6528 8.72328H42.8119V6.15794H47.0178V21.5798C47.0178 22.8791 46.6997 23.9662 46.0633 24.8412C45.4269 25.7162 44.5453 26.3724 43.4184 26.8099C42.2981 27.2541 41.0088 27.4761 39.5505 27.4761ZM39.64 18.0301C40.3228 18.0301 40.8995 17.8611 41.3701 17.523C41.8474 17.1783 42.212 16.6878 42.4639 16.0514C42.7224 15.4084 42.8517 14.6395 42.8517 13.7446C42.8517 12.8497 42.7257 12.0741 42.4738 11.4179C42.2219 10.755 41.8573 10.2413 41.3801 9.87669C40.9028 9.5121 40.3228 9.32981 39.64 9.32981C38.944 9.32981 38.3573 9.51873 37.8801 9.89657C37.4028 10.2678 37.0415 10.7848 36.7963 11.4477C36.551 12.1106 36.4284 12.8762 36.4284 13.7446C36.4284 14.6262 36.551 15.3885 36.7963 16.0315C37.0481 16.6679 37.4094 17.1617 37.8801 17.5131C38.3573 17.8577 38.944 18.0301 39.64 18.0301ZM54.7437 21.719C53.7693 21.719 52.9009 21.55 52.1386 21.2119C51.3763 20.8672 50.7731 20.3601 50.3289 19.6906C49.8914 19.0145 49.6727 18.1726 49.6727 17.165C49.6727 16.3166 49.8285 15.604 50.14 15.0273C50.4516 14.4506 50.8758 13.9865 51.4127 13.6352C51.9497 13.2839 52.5595 13.0187 53.2423 12.8398C53.9317 12.6608 54.6542 12.5348 55.4099 12.4619C56.2981 12.3691 57.0141 12.2829 57.5576 12.2034C58.1012 12.1172 58.4956 11.9913 58.7409 11.8256C58.9861 11.6598 59.1088 11.4146 59.1088 11.0898V11.0301C59.1088 10.4004 58.9099 9.91314 58.5122 9.56845C58.1211 9.22375 57.5642 9.0514 56.8417 9.0514C56.0794 9.0514 55.4729 9.22044 55.0221 9.5585C54.5713 9.88994 54.2731 10.3076 54.1272 10.8113L50.2096 10.4932C50.4085 9.56513 50.7996 8.76305 51.3829 8.08691C51.9662 7.40415 52.7186 6.88047 53.64 6.51589C54.568 6.14468 55.6419 5.95907 56.8616 5.95907C57.7101 5.95907 58.5221 6.0585 59.2977 6.25737C60.0799 6.45623 60.7726 6.76447 61.3758 7.18208C61.9856 7.5997 62.4662 8.13663 62.8176 8.79288C63.1689 9.4425 63.3445 10.2214 63.3445 11.1295V21.4307H59.3275V19.3128H59.2082C58.9629 19.79 58.6348 20.211 58.2238 20.5756C57.8128 20.9335 57.319 21.2152 56.7423 21.4207C56.1656 21.6196 55.4994 21.719 54.7437 21.719ZM55.9568 18.7957C56.5799 18.7957 57.1301 18.6731 57.6073 18.4278C58.0846 18.1759 58.4591 17.8379 58.7309 17.4136C59.0027 16.9894 59.1386 16.5088 59.1386 15.9719V14.3511C59.006 14.4373 58.8237 14.5168 58.5917 14.5898C58.3663 14.656 58.1111 14.719 57.8261 14.7787C57.541 14.8317 57.256 14.8814 56.971 14.9278C56.6859 14.9676 56.4274 15.0041 56.1954 15.0372C55.6982 15.1101 55.2641 15.2261 54.8928 15.3852C54.5216 15.5443 54.2333 15.7597 54.0278 16.0315C53.8223 16.2967 53.7195 16.6281 53.7195 17.0258C53.7195 17.6025 53.9284 18.0434 54.346 18.3483C54.7702 18.6466 55.3071 18.7957 55.9568 18.7957ZM70.8666 1.06703V21.4307H66.6308V1.06703H70.8666Z" fill="#403E5C"/>
<path d="M98.787 8.19629H94.4319C94.3524 7.63284 94.19 7.13237 93.9447 6.69487C93.6994 6.25074 93.3846 5.8729 93.0001 5.56135C92.6156 5.24979 92.1715 5.01116 91.6677 4.84544C91.1705 4.67972 90.6303 4.59686 90.047 4.59686C88.993 4.59686 88.0749 4.85869 87.2927 5.38237C86.5105 5.89941 85.904 6.6551 85.4731 7.64941C85.0422 8.6371 84.8268 9.83691 84.8268 11.2488C84.8268 12.7005 85.0422 13.9202 85.4731 14.9079C85.9106 15.8956 86.5204 16.6414 87.3026 17.1452C88.0848 17.6489 88.9897 17.9008 90.0171 17.9008C90.5938 17.9008 91.1275 17.8246 91.618 17.6721C92.1151 17.5197 92.556 17.2976 92.9404 17.0059C93.3249 16.7077 93.6431 16.3464 93.895 15.9221C94.1535 15.4979 94.3325 15.014 94.4319 14.4704L98.787 14.4903C98.6743 15.425 98.3926 16.3265 97.9419 17.1949C97.4977 18.0566 96.8978 18.8289 96.1421 19.5116C95.3931 20.1878 94.4982 20.7247 93.4575 21.1224C92.4234 21.5135 91.2534 21.7091 89.9475 21.7091C88.1312 21.7091 86.5072 21.2981 85.0754 20.4761C83.6502 19.6541 82.5233 18.4643 81.6947 16.9065C80.8727 15.3488 80.4617 13.4629 80.4617 11.2488C80.4617 9.0282 80.8794 7.139 81.7146 5.58123C82.5498 4.02347 83.6833 2.83691 85.1151 2.02157C86.547 1.1996 88.1578 0.788618 89.9475 0.788618C91.1275 0.788618 92.2212 0.954338 93.2288 1.28578C94.243 1.61722 95.1412 2.10112 95.9234 2.73748C96.7056 3.36722 97.3419 4.13947 97.8325 5.05424C98.3296 5.96902 98.6478 7.01636 98.787 8.19629ZM106.031 12.6011V21.4307H101.795V1.06703H105.911V8.85254H106.09C106.435 7.95102 106.992 7.24506 107.761 6.73464C108.53 6.2176 109.494 5.95907 110.654 5.95907C111.715 5.95907 112.64 6.19108 113.428 6.6551C114.224 7.11248 114.84 7.77205 115.278 8.63379C115.722 9.4889 115.941 10.5131 115.934 11.7062V21.4307H111.698V12.4619C111.705 11.5206 111.466 10.7881 110.982 10.2645C110.505 9.7408 109.836 9.47896 108.974 9.47896C108.397 9.47896 107.887 9.60159 107.443 9.84686C107.005 10.0921 106.66 10.4501 106.408 10.9207C106.163 11.3847 106.037 11.9449 106.031 12.6011ZM123.623 21.719C122.648 21.719 121.78 21.55 121.017 21.2119C120.255 20.8672 119.652 20.3601 119.208 19.6906C118.77 19.0145 118.552 18.1726 118.552 17.165C118.552 16.3166 118.707 15.604 119.019 15.0273C119.33 14.4506 119.755 13.9865 120.292 13.6352C120.829 13.2839 121.438 13.0187 122.121 12.8398C122.811 12.6608 123.533 12.5348 124.289 12.4619C125.177 12.3691 125.893 12.2829 126.437 12.2034C126.98 12.1172 127.374 11.9913 127.62 11.8256C127.865 11.6598 127.988 11.4146 127.988 11.0898V11.0301C127.988 10.4004 127.789 9.91314 127.391 9.56845C127 9.22375 126.443 9.0514 125.721 9.0514C124.958 9.0514 124.352 9.22044 123.901 9.5585C123.45 9.88994 123.152 10.3076 123.006 10.8113L119.089 10.4932C119.287 9.56513 119.678 8.76305 120.262 8.08691C120.845 7.40415 121.598 6.88047 122.519 6.51589C123.447 6.14468 124.521 5.95907 125.741 5.95907C126.589 5.95907 127.401 6.0585 128.177 6.25737C128.959 6.45623 129.651 6.76447 130.255 7.18208C130.865 7.5997 131.345 8.13663 131.696 8.79288C132.048 9.4425 132.223 10.2214 132.223 11.1295V21.4307H128.206V19.3128H128.087C127.842 19.79 127.514 20.211 127.103 20.5756C126.692 20.9335 126.198 21.2152 125.621 21.4207C125.044 21.6196 124.378 21.719 123.623 21.719ZM124.836 18.7957C125.459 18.7957 126.009 18.6731 126.486 18.4278C126.964 18.1759 127.338 17.8379 127.61 17.4136C127.882 16.9894 128.017 16.5088 128.017 15.9719V14.3511C127.885 14.4373 127.703 14.5168 127.471 14.5898C127.245 14.656 126.99 14.719 126.705 14.7787C126.42 14.8317 126.135 14.8814 125.85 14.9278C125.565 14.9676 125.306 15.0041 125.074 15.0372C124.577 15.1101 124.143 15.2261 123.772 15.3852C123.401 15.5443 123.112 15.7597 122.907 16.0315C122.701 16.2967 122.598 16.6281 122.598 17.0258C122.598 17.6025 122.807 18.0434 123.225 18.3483C123.649 18.6466 124.186 18.7957 124.836 18.7957ZM143.633 6.15794V9.33975H134.436V6.15794H143.633ZM136.524 2.49885H140.76V16.7375C140.76 17.1286 140.819 17.4335 140.939 17.6523C141.058 17.8644 141.224 18.0135 141.436 18.0997C141.655 18.1859 141.906 18.229 142.191 18.229C142.39 18.229 142.589 18.2124 142.788 18.1792C142.987 18.1395 143.139 18.1096 143.245 18.0898L143.912 21.2417C143.7 21.308 143.401 21.3843 143.017 21.4704C142.632 21.5632 142.165 21.6196 141.615 21.6395C140.594 21.6792 139.699 21.5434 138.93 21.2318C138.168 20.9202 137.575 20.4363 137.15 19.7801C136.726 19.1238 136.517 18.2952 136.524 17.2943V2.49885ZM146.8 21.4307V1.06703H151.036V8.72328H151.165C151.351 8.31229 151.619 7.89468 151.971 7.47044C152.329 7.03957 152.793 6.68161 153.363 6.39657C153.939 6.10491 154.655 5.95907 155.51 5.95907C156.624 5.95907 157.651 6.25074 158.593 6.83407C159.534 7.41078 160.286 8.28246 160.85 9.44913C161.413 10.6092 161.695 12.0642 161.695 13.8142C161.695 15.5178 161.42 16.9562 160.87 18.1295C160.326 19.2962 159.584 20.1811 158.642 20.7844C157.708 21.3809 156.66 21.6792 155.5 21.6792C154.678 21.6792 153.979 21.5434 153.402 21.2716C152.832 20.9998 152.365 20.6584 152 20.2474C151.636 19.8298 151.357 19.4089 151.165 18.9846H150.976V21.4307H146.8ZM150.946 13.7943C150.946 14.7024 151.072 15.4946 151.324 16.1707C151.576 16.8469 151.941 17.3738 152.418 17.7517C152.895 18.1229 153.475 18.3085 154.158 18.3085C154.848 18.3085 155.431 18.1196 155.908 17.7417C156.385 17.3573 156.747 16.827 156.992 16.1508C157.244 15.4681 157.37 14.6826 157.37 13.7943C157.37 12.9127 157.247 12.1371 157.002 11.4676C156.757 10.7981 156.395 10.2744 155.918 9.89657C155.441 9.51873 154.854 9.32981 154.158 9.32981C153.469 9.32981 152.885 9.5121 152.408 9.87669C151.937 10.2413 151.576 10.7583 151.324 11.4278C151.072 12.0973 150.946 12.8862 150.946 13.7943ZM171.422 21.729C169.877 21.729 168.542 21.4008 167.415 20.7446C166.295 20.0817 165.43 19.1603 164.82 17.9804C164.21 16.7938 163.905 15.4184 163.905 13.854C163.905 12.2763 164.21 10.8975 164.82 9.7176C165.43 8.53104 166.295 7.60964 167.415 6.95339C168.542 6.29051 169.877 5.95907 171.422 5.95907C172.966 5.95907 174.299 6.29051 175.419 6.95339C176.546 7.60964 177.414 8.53104 178.024 9.7176C178.634 10.8975 178.939 12.2763 178.939 13.854C178.939 15.4184 178.634 16.7938 178.024 17.9804C177.414 19.1603 176.546 20.0817 175.419 20.7446C174.299 21.4008 172.966 21.729 171.422 21.729ZM171.442 18.4477C172.145 18.4477 172.731 18.2488 173.202 17.8511C173.672 17.4468 174.027 16.8966 174.266 16.2006C174.511 15.5045 174.634 14.7124 174.634 13.8241C174.634 12.9359 174.511 12.1437 174.266 11.4477C174.027 10.7517 173.672 10.2015 173.202 9.79714C172.731 9.39278 172.145 9.19061 171.442 9.19061C170.733 9.19061 170.136 9.39278 169.652 9.79714C169.175 10.2015 168.814 10.7517 168.568 11.4477C168.33 12.1437 168.21 12.9359 168.21 13.8241C168.21 14.7124 168.33 15.5045 168.568 16.2006C168.814 16.8966 169.175 17.4468 169.652 17.8511C170.136 18.2488 170.733 18.4477 171.442 18.4477ZM189.817 6.15794V9.33975H180.619V6.15794H189.817ZM182.707 2.49885H186.943V16.7375C186.943 17.1286 187.003 17.4335 187.122 17.6523C187.242 17.8644 187.407 18.0135 187.619 18.0997C187.838 18.1859 188.09 18.229 188.375 18.229C188.574 18.229 188.773 18.2124 188.972 18.1792C189.171 18.1395 189.323 18.1096 189.429 18.0898L190.095 21.2417C189.883 21.308 189.585 21.3843 189.2 21.4704C188.816 21.5632 188.349 21.6196 187.798 21.6395C186.778 21.6792 185.883 21.5434 185.114 21.2318C184.351 20.9202 183.758 20.4363 183.334 19.7801C182.91 19.1238 182.701 18.2952 182.707 17.2943V2.49885Z" fill="#854BFF"/>
</svg>
