<svg width="1585" height="2543" viewBox="0 0 1585 2543" fill="none" xmlns="http://www.w3.org/2000/svg">
<g filter="url(#filter0_d_66_38)">
<path d="M1341.62 105.617C1545.71 87.4167 1452.7 546.809 1463.75 666.301C1550.94 1125.23 1593.45 2113.32 1065.98 2394.2C538.514 2675.07 196.1 2154.03 90.8265 1858.39C50.5235 1702.84 37.0042 1360.19 305.351 1234.03C573.697 1107.87 524.152 897.884 513.195 761.051C448.345 326.455 715.581 101.76 897.647 68.1442C897.838 68.1088 897.934 68.0911 898.036 68.0829C898.125 68.0756 898.217 68.0744 898.306 68.0793C898.408 68.0849 898.508 68.1007 898.71 68.1324L1204.99 116.346C1205.13 116.368 1205.2 116.379 1205.27 116.385C1205.34 116.391 1205.4 116.393 1205.46 116.392C1205.53 116.392 1205.6 116.386 1205.74 116.375L1341.62 105.617Z" fill="#894AE8"/>
</g>
<defs>
<filter id="filter0_d_66_38" x="0.660889" y="0.076416" width="1583.93" height="2542.64" filterUnits="userSpaceOnUse" color-interpolation-filters="sRGB">
<feFlood flood-opacity="0" result="BackgroundImageFix"/>
<feColorMatrix in="SourceAlpha" type="matrix" values="0 0 0 0 0 0 0 0 0 0 0 0 0 0 0 0 0 0 127 0" result="hardAlpha"/>
<feOffset/>
<feGaussianBlur stdDeviation="34"/>
<feComposite in2="hardAlpha" operator="out"/>
<feColorMatrix type="matrix" values="0 0 0 0 0.085 0 0 0 0 0.1365 0 0 0 0 0.6 0 0 0 0.11 0"/>
<feBlend mode="normal" in2="BackgroundImageFix" result="effect1_dropShadow_66_38"/>
<feBlend mode="normal" in="SourceGraphic" in2="effect1_dropShadow_66_38" result="shape"/>
</filter>
</defs>
</svg>
